<!--https://www.streamlinehq.com/icons/core-solid-free/interface-essential/interface-essential/broken-link-2 -->
<svg xmlns="http://www.w3.org/2000/svg" fill="none" viewBox="0 0 14 14"
    id="Broken-Link-2--Streamline-Core.svg">
    <desc>Broken Link 2 Streamline Icon: https://streamlinehq.com</desc>
    <g id="Broken-Link-2--Streamline-Core.svg">
        <path id="Union" fill="#F5F5F5" fill-rule="evenodd"
            d="M7.65 2.8768C9.0132 1.5657 11.2844 2.222 11.7382 4.0581C11.9407 4.8771 11.7087 5.7427 11.1239 6.3508L9.2465 8.2262L8.2011 7.1828L9.1408 6.2431C9.6739 5.7103 9.4304 4.8003 8.7025 4.6049C8.3646 4.5143 8.0041 4.6107 7.7567 4.858L6.817 5.7987L5.7716 4.7542L7.649 2.8768ZM4.3884 3.3701L6.2659 1.4917C8.6238 -0.9556 12.7468 0.0674 13.6872 3.3331C14.14 4.9052 13.6862 6.5988 12.508 7.7339L10.6306 9.6113L13.5809 12.5616C13.9772 12.9583 13.7955 13.6353 13.2537 13.7802C13.0023 13.8475 12.7341 13.7755 12.5501 13.5913L0.4045 1.4467C0.0078 1.05 0.1893 0.3725 0.7312 0.2273C0.9828 0.1599 1.2511 0.2318 1.4352 0.416L4.3884 3.3711ZM2.8614 6.2813C3.2436 6.6635 3.2436 7.2831 2.8614 7.6654C1.5504 9.0285 2.2066 11.2998 4.0427 11.7536C4.8617 11.9561 5.7273 11.7241 6.3354 11.1393C6.8772 10.6157 7.7827 10.875 7.9653 11.6061C8.0471 11.9338 7.9542 12.2805 7.7195 12.5234C5.3499 14.9594 1.2319 13.9168 0.307 10.6467C-0.134 9.0872 0.3148 7.4114 1.4764 6.2813C1.8586 5.8991 2.4782 5.8991 2.8605 6.2813Z"
            clip-rule="evenodd" stroke-width="1"></path>
    </g>
</svg>
