<!--https://www.streamlinehq.com/icons/core-solid-free/interface-essential/interface-essential/padlock-square-1 -->
<svg xmlns="http://www.w3.org/2000/svg" fill="none" viewBox="0 0 14 14"
    id="Padlock-Square-1--Streamline-Core.svg">
    <desc>Padlock Square 1 Streamline Icon: https://streamlinehq.com</desc>
    <g id="Padlock-Square-1--Streamline-Core.svg">
        <path id="Subtract" fill="#000" fill-rule="evenodd"
            d="M7 2a2 2 0 0 0 -2 2v1h4V4a2 2 0 0 0 -2 -2ZM3 4v1a1.5 1.5 0 0 0 -1.5 1.5v6A1.5 1.5 0 0 0 3 14h8a1.5 1.5 0 0 0 1.5 -1.5v-6A1.5 1.5 0 0 0 11 5V4a4 4 0 1 0 -8 0Zm4 6.75a1.25 1.25 0 1 0 0 -2.5 1.25 1.25 0 0 0 0 2.5Z"
            clip-rule="evenodd" stroke-width="1"></path>
    </g>
</svg>