<!--https://www.streamlinehq.com/icons/core-solid-free/interface-essential/interface-essential/recycle-bin-2 -->
<svg xmlns="http://www.w3.org/2000/svg" fill="none" viewBox="0 0 14 14"
    id="Task-List--Streamline-Core.svg">
    <desc>Task List Streamline Icon: https://streamlinehq.com</desc>
    <g id="Task-List--Streamline-Core.svg">
        <path id="Subtract" fill="#000" fill-rule="evenodd"
            d="M1.5502 0.5712C1.8256 0.2954 2.1993 0.1403 2.589 0.14H8.0643C8.454 0.1403 8.8277 0.2954 9.1031 0.5712L12.4488 3.9169C12.7246 4.1923 12.8797 4.566 12.88 4.9557V12.39C12.88 13.2019 12.2219 13.86 11.41 13.86H2.59C1.7781 13.86 1.12 13.2019 1.12 12.39V1.61C1.12 1.22 1.2748 0.8456 1.5512 0.5712ZM6.1288 4.5765C6.4598 4.8123 6.5366 5.2719 6.3003 5.6025L4.9312 7.5194C4.6671 7.8884 4.135 7.9323 3.814 7.6115L2.9928 6.7903C2.6071 6.3763 2.8141 5.7001 3.3654 5.573C3.6034 5.5182 3.853 5.585 4.0316 5.7515L4.2393 5.9583L5.1037 4.7489C5.3394 4.4186 5.7983 4.3418 6.1288 4.5774ZM7.0598 6.3865C7.0598 5.9806 7.3889 5.6515 7.7948 5.6515H10.2448C10.8106 5.6515 11.1642 6.264 10.8813 6.754C10.75 6.9814 10.5074 7.1215 10.2448 7.1215H7.7948C7.3888 7.1215 7.0598 6.7925 7.0598 6.3865ZM7.0598 10.2761C7.0598 9.8702 7.3888 9.5411 7.7948 9.5411H10.2448C10.8106 9.5412 11.1642 10.1537 10.8813 10.6437C10.75 10.8711 10.5074 11.0111 10.2448 11.0111H7.7948C7.3888 11.0112 7.0598 10.6821 7.0598 10.2761ZM6.3003 9.5529C6.6399 9.1004 6.3623 8.4499 5.8006 8.382C5.5277 8.3491 5.2593 8.4711 5.1047 8.6983L4.2393 9.9086L4.0316 9.7009C3.6176 9.3152 2.9414 9.5222 2.8143 10.0735C2.7595 10.3115 2.8263 10.5611 2.9928 10.7397L3.814 11.5609C4.135 11.8817 4.6671 11.8378 4.9312 11.4688L6.3003 9.5529Z"
            clip-rule="evenodd" stroke-width="1"></path>
    </g>
</svg>