<!--https://www.streamlinehq.com/icons/core-solid-free/interface-essential/interface-essential/user-multiple-group -->
<svg xmlns="http://www.w3.org/2000/svg" fill="none" viewBox="0 0 14 14"
    id="User-Multiple-Group--Streamline-Core.svg">
    <desc>User Multiple Group Streamline Icon: https://streamlinehq.com</desc>
    <g id="User-Multiple-Group--Streamline-Core.svg">
        <path id="Union" fill="#000" fill-rule="evenodd"
            d="M7.9799 3.815C7.9799 5.4387 6.6637 6.755 5.04 6.755S2.1 5.4387 2.1 3.815S3.4163 0.8751 5.04 0.8751S7.9799 2.1913 7.9799 3.815ZM5.04 7.735C2.3338 7.735 0.14 9.9288 0.14 12.6349C0.14 12.9055 0.3594 13.1249 0.63 13.1249H9.4499C9.7206 13.1249 9.9399 12.9055 9.9399 12.6349C9.9399 9.9288 7.7462 7.735 5.04 7.735ZM13.37 13.1249H11.094C11.1402 12.9697 11.165 12.8052 11.165 12.6349C11.165 10.6347 10.2062 8.8584 8.7231 7.7406C8.8016 7.7369 8.8806 7.735 8.96 7.735C11.6662 7.735 13.86 9.9288 13.86 12.6349C13.86 12.9055 13.6406 13.1249 13.37 13.1249ZM8.96 6.755C8.6643 6.755 8.3788 6.7114 8.1096 6.6301C8.7898 5.8888 9.205 4.9004 9.205 3.815S8.7898 1.7412 8.1096 0.9999C8.3788 0.9187 8.6643 0.8751 8.96 0.8751C10.5837 0.8751 11.9 2.1913 11.9 3.815S10.5837 6.755 8.96 6.755Z"
            clip-rule="evenodd" stroke-width="1"></path>
    </g>
</svg>