<svg xmlns="http://www.w3.org/2000/svg" viewBox="0 0 14 14" version="1.1"
	id="Magnifying-Glass--Streamline-Core.svg">
	<desc>Magnifying Glass Streamline Icon: https://streamlinehq.com</desc>
	<path
		d="M5.5440000000000005 0.015148000000000002C4.301654 0.120624 3.1893540000000002 0.561274 2.24 1.324036C0.06409200000000001 3.0723 -0.61698 6.088502 0.595476 8.607032C0.7323820000000001 8.891428 0.813134 9.032422 1.002078 9.317C1.9849759999999999 10.797360000000001 3.54256 11.752048 5.32 11.963602C5.5747860000000005 11.993926 6.184332 12.005896 6.433 11.985456000000001C7.684894000000001 11.882556000000001 8.777468 11.45508 9.744 10.690022L9.877 10.584742 11.536 12.241964000000001C12.44845 13.153433999999999 13.2202 13.914446 13.251 13.933122C13.335042000000001 13.984068 13.427162 14.004676 13.535998 13.996892C13.783980000000001 13.979154 13.979154 13.783980000000001 13.996892 13.535998C14.004676 13.427162 13.984068 13.335042000000001 13.933122 13.251C13.914446 13.2202 13.153433999999999 12.44845 12.241964000000001 11.536L10.584742 9.877 10.690022 9.744C11.293002000000001 8.982232 11.69924 8.108884 11.885006 7.175C11.932382 6.936818000000001 11.962062 6.7175780000000005 11.985456000000001 6.433C12.005896 6.184332 11.993926 5.5747860000000005 11.963602 5.32C11.772726 3.7162719999999996 10.977456 2.289616 9.716000000000001 1.287944C9.535511999999999 1.144626 9.145724 0.881706 8.950032 0.771274C8.328852 0.42075599999999996 7.593446 0.168854 6.8846680000000005 0.06382600000000001C6.49341 0.0058379999999999994 5.905130000000001 -0.015526 5.5440000000000005 0.015148000000000002M5.607 1.0163440000000001C5.073054 1.0681440000000002 4.673858 1.1586400000000001 4.218802 1.331036C2.898742 1.8311439999999999 1.8311439999999999 2.898742 1.331036 4.218802C1.18391 4.607162000000001 1.095766 4.962398 1.03348 5.418C1.008658 5.5995800000000004 1.0085600000000001 6.400226 1.033326 6.58C1.1933179999999999 7.74081 1.64528 8.685894000000001 2.4217760000000004 9.483334C2.837212 9.909984 3.27915 10.231116 3.801 10.485552C4.4404639999999995 10.797332 5.05722 10.955602 5.761 10.98853C6.995898 11.04628 8.18167 10.65967 9.142 9.886156C9.331462 9.733556 9.667349999999999 9.401895999999999 9.833753999999999 9.203124C10.440667999999999 8.47812 10.832892000000001 7.58625 10.95437 6.654914C11.001928 6.2902700000000005 11.005092 5.744536 10.961636 5.397C10.890782 4.830196 10.738574000000002 4.3199380000000005 10.485552 3.801C10.231116 3.27915 9.909984 2.837212 9.483334 2.4217760000000004C8.700958 1.659952 7.755566000000001 1.2010180000000001 6.640928 1.04195C6.49642 1.021328 5.746958 1.002764 5.607 1.0163440000000001"
		stroke="none" fill="#000" fill-rule="evenodd"></path>
</svg>